<svg width="800" height="400" xmlns="http://www.w3.org/2000/svg">
 <g>
  <title>Layer 1</title>
  <rect fill="#fff" stroke="#000" x="489" y="104" width="193" height="69" id="svg_2"/>
  <rect fill="#fff" stroke="#000" x="490" y="197" width="193" height="69" id="svg_5"/>
  <rect fill="#fff" stroke="#000" x="489" y="291" width="193" height="69" id="svg_6"/>
  <text fill="#000000" stroke="#000" x="542" y="147" id="svg_8" stroke-width="0" font-size="24" font-family="'Rounded Mplus 1c'" text-anchor="start" xml:space="preserve" font-weight="normal" font-style="normal">backend</text>
  <text fill="#000000" stroke="#000" x="565" y="239" id="svg_9" stroke-width="0" font-size="24" font-family="'Rounded Mplus 1c'" text-anchor="start" xml:space="preserve" font-weight="normal" font-style="normal">app</text>
  <text fill="#000000" stroke="#000" x="500" y="333" id="svg_10" stroke-width="0" font-size="24" font-family="'Rounded Mplus 1c'" text-anchor="start" xml:space="preserve" font-weight="normal" font-style="normal">app-deploy-ops</text>
  <path fill="#fff" stroke="#000" d="m186.88541,102.43138c-15.34627,0 -28.5186,7.7893 -34.96623,19.03426c-2.57515,-1.4071 -5.41553,-2.25912 -8.4469,-2.25912c-9.16695,0 -16.79514,7.2177 -19.15285,17.01548c-4.02431,-1.55685 -8.70349,-2.49945 -13.70166,-2.49945c-14.99451,0 -27.15776,8.02969 -27.15776,17.92874c0,8.93556 9.97549,16.28142 22.93433,17.64034c-0.5808,0.96448 -1.03131,1.9196 -1.03131,2.93204c0,9.47781 26.53017,17.20773 59.22652,17.20773c32.69635,0 59.22656,-7.72992 59.22653,-17.20773c0,-0.6377 -0.4044,-1.20679 -0.63844,-1.82651c1.43211,0.34857 2.85008,0.72099 4.41989,0.72099c8.74678,0.00003 15.8625,-5.81689 15.8625,-12.97791c0,-7.16101 -7.11572,-12.97792 -15.8625,-12.97792c-1.0719,0 -1.98334,0.36238 -2.9957,0.52873c0.88521,-2.86334 1.4733,-5.78496 1.4733,-8.89226c0,-18.9556 -17.53096,-34.36742 -39.18968,-34.36742l-0.00002,-0.00002l-0.00003,0.00002l0,0.00001z" id="svg_11"/>
  <path fill="#fff" stroke="#000" d="m185.01524,231.0336c-15.05853,0 -27.98389,9.22182 -34.31064,22.53481c-2.52687,-1.66588 -5.31401,-2.67459 -8.28851,-2.67459c-8.99506,0 -16.48023,8.54509 -18.79373,20.14476c-3.94886,-1.84314 -8.5403,-2.95911 -13.44476,-2.95911c-14.71336,0 -26.64854,9.50641 -26.64854,21.22595c0,10.57889 9.78843,19.27573 22.50429,20.88455c-0.56992,1.14185 -1.01197,2.27261 -1.01197,3.47125c0,11.22086 26.03272,20.37238 58.11604,20.37238c32.08331,0 58.11606,-9.15155 58.11604,-20.37238c0,-0.75497 -0.39682,-1.42871 -0.62645,-2.16241c1.40524,0.41266 2.79666,0.85358 4.33702,0.85358c8.58275,0.00003 15.56505,-6.88666 15.56505,-15.36465c0,-8.47797 -6.9823,-15.36462 -15.56505,-15.36462c-1.05179,0 -1.94615,0.42908 -2.93954,0.62601c0.86862,-3.38989 1.44565,-6.84894 1.44565,-10.52768c0,-22.44164 -17.20224,-40.68781 -38.45485,-40.68781l-0.00003,-0.00003l0,0.00003l0,-0.00002l0,-0.00002z" id="svg_12"/>
  <text fill="#000000" stroke="#000" x="134" y="300" id="svg_13" stroke-width="0" font-size="18" font-family="'Rounded Mplus 1c'" text-anchor="start" xml:space="preserve" font-weight="normal" font-style="normal">staging</text>
  <text fill="#000000" stroke="#000" x="151" y="160" id="svg_14" stroke-width="0" font-size="18" font-family="'Rounded Mplus 1c'" text-anchor="start" xml:space="preserve" font-weight="normal" font-style="normal">prod</text>
  <path fill="none" stroke="#000000" d="m191,88c9,-17 32,-44 113,-45c81,-1 417,-11 450,16c33,27 5,67 -59,74" id="svg_15"/>
  <path fill="none" stroke="#000000" id="svg_16"/>
  <path fill="none" stroke="#000000" opacity="NaN" d="m699,332" id="svg_17"/>
  <path stroke="#000000" fill="none" d="m769,102.99999c-1.92499,6.2477 -77,227.00001 -77,227.00001c44.57501,-6.41284 75.01251,-121.20184 77,-227.00001" id="svg_18"/>
  <path id="svg_1" d="m480,325c-52,3 -241,-4 -241,-4" opacity="NaN" stroke="#000000" fill="none"/>
  <path id="svg_3" d="m482,143c-57,1 -41,54 -84,93c-62,41 -156,42 -155,42" stroke="#000000" fill="none"/>
  <text font-style="normal" font-weight="normal" xml:space="preserve" text-anchor="start" font-family="'Rounded Mplus 1c'" font-size="24" stroke-width="0" id="svg_4" y="67" x="386" stroke="#000000" fill="#000000">CI/CD</text>
 </g>

</svg>